<?xml version="1.0" encoding="UTF-8" standalone="no"?>
<!-- Created with Inkscape (http://www.inkscape.org/) -->

<svg
   width="210mm"
   height="297mm"
   viewBox="0 0 210 297"
   version="1.1"
   id="svg5"
   sodipodi:docname="vector_logo.svg"
   inkscape:version="1.1 (c68e22c387, 2021-05-23)"
   inkscape:export-filename="G:\git\Starfarer\art\logo.png"
   inkscape:export-xdpi="96"
   inkscape:export-ydpi="96"
   xmlns:inkscape="http://www.inkscape.org/namespaces/inkscape"
   xmlns:sodipodi="http://sodipodi.sourceforge.net/DTD/sodipodi-0.dtd"
   xmlns="http://www.w3.org/2000/svg"
   xmlns:svg="http://www.w3.org/2000/svg">
  <sodipodi:namedview
     id="namedview7"
     pagecolor="#505050"
     bordercolor="#eeeeee"
     borderopacity="1"
     inkscape:pageshadow="0"
     inkscape:pageopacity="0"
     inkscape:pagecheckerboard="0"
     inkscape:document-units="mm"
     showgrid="false"
     inkscape:zoom="0.66635802"
     inkscape:cx="267.87402"
     inkscape:cy="719.58314"
     inkscape:window-width="1920"
     inkscape:window-height="1017"
     inkscape:window-x="-8"
     inkscape:window-y="1072"
     inkscape:window-maximized="1"
     inkscape:current-layer="layer1" />
  <defs
     id="defs2" />
  <g
     inkscape:label="Layer 1"
     inkscape:groupmode="layer"
     id="layer1">
    <path
       id="path8134"
       style="opacity:1;fill:#550000;stroke:none;stroke-width:2.3809;stroke-linecap:round;stroke-linejoin:miter;stroke-miterlimit:4;stroke-dasharray:none"
       d="m 106.26204,172.64501 a 67.972571,67.972571 0 0 0 -67.972595,67.9726 67.972571,67.972571 0 0 0 4.60747,24.57214 67.762535,94.365478 0 0 1 63.365125,-60.96682 67.762535,94.365478 0 0 1 63.36977,60.95442 67.972571,67.972571 0 0 0 4.60282,-24.55974 67.972571,67.972571 0 0 0 -67.97259,-67.9726 z" />
    <path
       id="path3368"
       style="opacity:1;fill:#550000;stroke:none;stroke-width:2.3809;stroke-linecap:round;stroke-linejoin:miter;stroke-miterlimit:4;stroke-dasharray:none"
       d="m 106.26204,172.64501 a 67.972571,67.972571 0 0 0 -67.972595,67.9726 67.972571,67.972571 0 0 0 4.60747,24.57214 67.762535,94.365478 0 0 1 63.365125,-60.96682 67.762535,94.365478 0 0 1 63.36977,60.95442 67.972571,67.972571 0 0 0 4.60282,-24.55974 67.972571,67.972571 0 0 0 -67.97259,-67.9726 z" />
    <path
       id="path914"
       style="opacity:1;fill:#ff6600;stroke:none;stroke-width:2.3809;stroke-linecap:round;stroke-linejoin:miter;stroke-miterlimit:4;stroke-dasharray:none"
       d="m 149.13891,173.11765 c 0,76.73654 -19.19663,89.31144 -42.87687,89.31145 -23.680244,0 -42.876875,-12.57491 -42.876875,-89.31145 -10e-7,-76.736556 42.876875,-138.943812 42.876875,-138.943812 0,0 42.87687,62.207266 42.87687,138.943812 z"
       sodipodi:nodetypes="ssscs" />
    <ellipse
       style="opacity:1;fill:#55ddff;stroke:none;stroke-width:2.3809;stroke-linecap:round;stroke-linejoin:miter;stroke-miterlimit:4;stroke-dasharray:none"
       id="path3841"
       cx="106.26205"
       cy="111.97059"
       rx="20.214933"
       ry="20.776459" />
    <path
       id="path5936"
       style="opacity:1;fill:#550000;stroke:none;stroke-width:2.3809;stroke-linecap:round"
       d="m 113.01204,239.82352 c 0,29.82337 -6.75,46.6544 -6.75,46.6544 0,0 -6.75,-16.83103 -6.75,-46.6544 0,-29.82338 3.02208,-54 6.75,-54 3.72792,0 6.75,24.17662 6.75,54 z"
       sodipodi:nodetypes="scsss" />
    <ellipse
       style="opacity:1;fill:#55ddff;stroke:none;stroke-width:2.3809;stroke-linecap:round;stroke-linejoin:miter;stroke-miterlimit:4;stroke-dasharray:none"
       id="ellipse8138"
       cx="106.26205"
       cy="111.97059"
       rx="20.214933"
       ry="20.776459" />
    <path
       id="path8140"
       style="opacity:1;fill:#550000;stroke:none;stroke-width:2.3809;stroke-linecap:round"
       d="m 113.01204,239.82352 c 0,29.82337 -6.75,46.6544 -6.75,46.6544 0,0 -6.75,-16.83103 -6.75,-46.6544 0,-29.82338 3.02208,-54 6.75,-54 3.72792,0 6.75,24.17662 6.75,54 z"
       sodipodi:nodetypes="scsss" />
    <path
       id="rect10720"
       style="opacity:0.25961538;fill:#000000;fill-opacity:1;stroke:none;stroke-width:0;stroke-linecap:butt;stroke-linejoin:miter;stroke-miterlimit:4;stroke-dasharray:none;stroke-opacity:1"
       d="M 502.25 332.66211 L 145.62305 899.38281 A 256.90421 256.90421 0 0 0 144.7168 909.41992 A 256.90421 256.90421 0 0 0 162.13086 1002.291 A 256.11037 356.65692 0 0 1 253.81836 837.41211 C 276.53956 952.62605 324.28089 985.26671 381.19727 990.86914 C 388.63963 1050.3536 401.62109 1082.752 401.62109 1082.752 C 401.62109 1082.752 414.6006 1050.3536 422.04297 990.86914 C 478.96343 985.26629 526.70655 952.62079 549.42578 837.38672 A 256.11037 356.65692 0 0 1 641.12891 1002.2441 A 256.90421 256.90421 0 0 0 658.52539 909.41992 A 256.90421 256.90421 0 0 0 562.68945 709.30273 C 563.32397 691.99126 563.67383 673.73223 563.67383 654.30273 C 563.67383 532.97459 535.24169 421.57799 502.25 332.66211 z "
       transform="scale(0.26458333)" />
    <path
       id="path14499"
       style="opacity:1;fill:#550000;stroke-width:0"
       d="M 401.62109 129.16016 C 401.62109 129.16016 372.63759 171.29976 339.19922 241.72852 C 355.47014 256.47539 377.44169 264.12305 401.62109 264.12305 C 425.8005 264.12305 447.77009 256.47539 464.04102 241.72852 C 430.60265 171.29975 401.62109 129.16016 401.62109 129.16016 z "
       transform="scale(0.26458333)" />
  </g>
</svg>
